<mxfile host="app.diagrams.net" modified="2023-03-30T10:39:46.416Z" agent="Mozilla/5.0 (Windows NT 10.0; Win64; x64; rv:109.0) Gecko/20100101 Firefox/111.0" etag="U-8kNqbgiNlsETaRIgXT" version="21.1.2" type="device" pages="7">
  <diagram name="MainPage" id="4QHCHEwzM7NgPZoShcnq">
    <mxGraphModel dx="2074" dy="1106" grid="1" gridSize="10" guides="1" tooltips="1" connect="1" arrows="1" fold="1" page="1" pageScale="1" pageWidth="1600" pageHeight="900" math="0" shadow="0">
      <root>
        <mxCell id="0" />
        <mxCell id="Sikc8s6z_d72JEaeaKDz-20" parent="0" />
        <mxCell id="Sikc8s6z_d72JEaeaKDz-28" value="&lt;div&gt;DrawerCollector&lt;/div&gt;&lt;div&gt;&lt;br&gt;&lt;/div&gt;" style="strokeWidth=1;shadow=0;dashed=0;align=center;html=1;shape=mxgraph.mockup.containers.window;align=left;verticalAlign=top;spacingLeft=8;strokeColor2=#008cff;strokeColor3=#c4c4c4;fontColor=#FFFFFF;mainText=;fontSize=17;labelBackgroundColor=none;whiteSpace=wrap;strokeColor=#FFFFFF;fillColor=#182E3E;" vertex="1" parent="Sikc8s6z_d72JEaeaKDz-20">
          <mxGeometry x="80" y="40" width="1400" height="790" as="geometry" />
        </mxCell>
        <UserObject label="" link="data:page/id,hgLcFoqbssjTXuBi4_AG" id="BZGcnAVH1Ryqcp6diZ6F-3">
          <mxCell style="shape=mxgraph.mockup.containers.marginRect;rectMarginTop=10;strokeColor=#666666;strokeWidth=1;dashed=0;rounded=1;arcSize=5;recursiveResize=0;html=1;whiteSpace=wrap;fontColor=#FFFFFF;fillColor=#182E3E;" vertex="1" parent="Sikc8s6z_d72JEaeaKDz-20">
            <mxGeometry x="110" y="90" width="180" height="200" as="geometry" />
          </mxCell>
        </UserObject>
        <mxCell id="BZGcnAVH1Ryqcp6diZ6F-4" value="&lt;div&gt;Image Loader&lt;/div&gt;" style="shape=rect;strokeColor=none;fillColor=#008cff;strokeWidth=1;dashed=0;rounded=1;arcSize=20;fontColor=#ffffff;fontSize=17;spacing=2;spacingTop=-2;align=left;autosize=1;spacingLeft=4;resizeWidth=0;resizeHeight=0;perimeter=none;html=1;whiteSpace=wrap;" vertex="1" parent="BZGcnAVH1Ryqcp6diZ6F-3">
          <mxGeometry x="5" width="130" height="30" as="geometry" />
        </mxCell>
        <UserObject label="&lt;font style=&quot;font-size: 32px;&quot;&gt;&lt;b&gt;+&lt;/b&gt;&lt;/font&gt;" link="data:page/id,UpVtdRNt34tTqxoJonI-" id="BZGcnAVH1Ryqcp6diZ6F-5">
          <mxCell style="ellipse;whiteSpace=wrap;html=1;strokeColor=#FFFFFF;fillColor=#182E3E;labelBackgroundColor=none;fontColor=#FFFFFF;shadow=0;aspect=fixed;" vertex="1" parent="BZGcnAVH1Ryqcp6diZ6F-3">
            <mxGeometry x="60" y="70" width="60" height="60" as="geometry" />
          </mxCell>
        </UserObject>
        <mxCell id="BZGcnAVH1Ryqcp6diZ6F-6" value="&lt;div style=&quot;font-size: 16px;&quot;&gt;Add directory&lt;br style=&quot;font-size: 16px;&quot;&gt;&lt;/div&gt;" style="text;html=1;strokeColor=none;fillColor=none;align=center;verticalAlign=middle;whiteSpace=wrap;rounded=0;fontColor=#FFFFFF;fontStyle=1;fontSize=16;" vertex="1" parent="BZGcnAVH1Ryqcp6diZ6F-3">
          <mxGeometry x="2.5" y="140" width="175" height="30" as="geometry" />
        </mxCell>
        <mxCell id="BZGcnAVH1Ryqcp6diZ6F-8" value="" style="shape=mxgraph.mockup.containers.marginRect;rectMarginTop=10;strokeColor=#666666;strokeWidth=1;dashed=0;rounded=1;arcSize=5;recursiveResize=0;html=1;whiteSpace=wrap;fontColor=#FFFFFF;fillColor=#182E3E;" vertex="1" parent="Sikc8s6z_d72JEaeaKDz-20">
          <mxGeometry x="1120" y="80" width="340" height="720" as="geometry" />
        </mxCell>
        <mxCell id="BZGcnAVH1Ryqcp6diZ6F-9" value="Configuration" style="shape=rect;strokeColor=none;fillColor=#008cff;strokeWidth=1;dashed=0;rounded=1;arcSize=20;fontColor=#ffffff;fontSize=17;spacing=2;spacingTop=-2;align=left;autosize=1;spacingLeft=4;resizeWidth=0;resizeHeight=0;perimeter=none;html=1;whiteSpace=wrap;" vertex="1" parent="BZGcnAVH1Ryqcp6diZ6F-8">
          <mxGeometry x="5" width="130" height="30" as="geometry" />
        </mxCell>
        <mxCell id="Y7kr4lN_EB4moR-PGXCY-1" value="" style="html=1;shadow=0;dashed=0;align=center;verticalAlign=middle;shape=mxgraph.arrows2.arrow;dy=0;dx=30;notch=30;strokeColor=#FFFFFF;fontColor=#FFFFFF;fillColor=#182E3E;" vertex="1" parent="Sikc8s6z_d72JEaeaKDz-20">
          <mxGeometry x="300" y="170" width="100" height="60" as="geometry" />
        </mxCell>
        <mxCell id="VPWg5gSxR-0Wk0qPY_qC-0" value="" style="group" vertex="1" connectable="0" parent="Sikc8s6z_d72JEaeaKDz-20">
          <mxGeometry x="362.5" y="160" width="175" height="100" as="geometry" />
        </mxCell>
        <UserObject label="&lt;font style=&quot;font-size: 32px;&quot;&gt;&lt;b&gt;+&lt;/b&gt;&lt;/font&gt;" link="data:page/id,DdyOgkGcl3cxmvbCV8Uq" id="e9swa3hjPzflOzBYY6jh-0">
          <mxCell style="ellipse;whiteSpace=wrap;html=1;strokeColor=#FFFFFF;fillColor=#182E3E;labelBackgroundColor=none;fontColor=#FFFFFF;shadow=0;aspect=fixed;" vertex="1" parent="VPWg5gSxR-0Wk0qPY_qC-0">
            <mxGeometry x="57.5" width="60" height="60" as="geometry" />
          </mxCell>
        </UserObject>
        <mxCell id="e9swa3hjPzflOzBYY6jh-1" value="&lt;div style=&quot;font-size: 16px;&quot;&gt;Add Module&lt;br style=&quot;font-size: 16px;&quot;&gt;&lt;/div&gt;" style="text;html=1;strokeColor=none;fillColor=none;align=center;verticalAlign=middle;whiteSpace=wrap;rounded=0;fontColor=#FFFFFF;fontStyle=1;fontSize=16;" vertex="1" parent="VPWg5gSxR-0Wk0qPY_qC-0">
          <mxGeometry y="70" width="175" height="30" as="geometry" />
        </mxCell>
      </root>
    </mxGraphModel>
  </diagram>
  <diagram name="ImageLoaderPage" id="hgLcFoqbssjTXuBi4_AG">
    <mxGraphModel dx="2074" dy="1106" grid="1" gridSize="10" guides="1" tooltips="1" connect="1" arrows="1" fold="1" page="1" pageScale="1" pageWidth="1600" pageHeight="900" math="0" shadow="0">
      <root>
        <mxCell id="sGLYkjMO27j8jB1cmiwa-0" />
        <mxCell id="sGLYkjMO27j8jB1cmiwa-1" parent="sGLYkjMO27j8jB1cmiwa-0" />
        <UserObject label="&lt;div&gt;DrawerCollector&lt;/div&gt;&lt;div&gt;&lt;br&gt;&lt;/div&gt;" link="data:page/id,4QHCHEwzM7NgPZoShcnq" id="sGLYkjMO27j8jB1cmiwa-2">
          <mxCell style="strokeWidth=1;shadow=0;dashed=0;align=center;html=1;shape=mxgraph.mockup.containers.window;align=left;verticalAlign=top;spacingLeft=8;strokeColor2=#008cff;strokeColor3=#c4c4c4;fontColor=#FFFFFF;mainText=;fontSize=17;labelBackgroundColor=none;whiteSpace=wrap;strokeColor=#FFFFFF;fillColor=#182E3E;" vertex="1" parent="sGLYkjMO27j8jB1cmiwa-1">
            <mxGeometry x="80" y="40" width="1400" height="790" as="geometry" />
          </mxCell>
        </UserObject>
        <mxCell id="sGLYkjMO27j8jB1cmiwa-3" value="" style="shape=mxgraph.mockup.containers.marginRect;rectMarginTop=10;strokeColor=#70888f;strokeWidth=5;dashed=0;rounded=1;arcSize=5;recursiveResize=0;html=1;whiteSpace=wrap;fontColor=#FFFFFF;fillColor=#182E3E;" vertex="1" parent="sGLYkjMO27j8jB1cmiwa-1">
          <mxGeometry x="110" y="90" width="180" height="200" as="geometry" />
        </mxCell>
        <mxCell id="sGLYkjMO27j8jB1cmiwa-4" value="&lt;div&gt;Image Loader&lt;/div&gt;" style="shape=rect;strokeColor=none;fillColor=#008cff;strokeWidth=1;dashed=0;rounded=1;arcSize=20;fontColor=#ffffff;fontSize=17;spacing=2;spacingTop=-2;align=left;autosize=1;spacingLeft=4;resizeWidth=0;resizeHeight=0;perimeter=none;html=1;whiteSpace=wrap;" vertex="1" parent="sGLYkjMO27j8jB1cmiwa-3">
          <mxGeometry x="5" width="130" height="30" as="geometry" />
        </mxCell>
        <UserObject label="&lt;font style=&quot;font-size: 32px;&quot;&gt;&lt;b&gt;+&lt;/b&gt;&lt;/font&gt;" link="data:page/id,UpVtdRNt34tTqxoJonI-" id="sGLYkjMO27j8jB1cmiwa-5">
          <mxCell style="ellipse;whiteSpace=wrap;html=1;strokeColor=#FFFFFF;fillColor=#182E3E;labelBackgroundColor=none;fontColor=#FFFFFF;shadow=0;aspect=fixed;" vertex="1" parent="sGLYkjMO27j8jB1cmiwa-3">
            <mxGeometry x="60" y="70" width="60" height="60" as="geometry" />
          </mxCell>
        </UserObject>
        <mxCell id="sGLYkjMO27j8jB1cmiwa-6" value="&lt;div style=&quot;font-size: 16px;&quot;&gt;Add directory&lt;br style=&quot;font-size: 16px;&quot;&gt;&lt;/div&gt;" style="text;html=1;strokeColor=none;fillColor=none;align=center;verticalAlign=middle;whiteSpace=wrap;rounded=0;fontColor=#FFFFFF;fontStyle=1;fontSize=16;" vertex="1" parent="sGLYkjMO27j8jB1cmiwa-3">
          <mxGeometry x="2.5" y="140" width="175" height="30" as="geometry" />
        </mxCell>
        <mxCell id="sGLYkjMO27j8jB1cmiwa-7" value="" style="shape=mxgraph.mockup.containers.marginRect;rectMarginTop=10;strokeColor=#666666;strokeWidth=1;dashed=0;rounded=1;arcSize=5;recursiveResize=0;html=1;whiteSpace=wrap;fontColor=#FFFFFF;fillColor=#182E3E;" vertex="1" parent="sGLYkjMO27j8jB1cmiwa-1">
          <mxGeometry x="1120" y="80" width="340" height="720" as="geometry" />
        </mxCell>
        <mxCell id="sGLYkjMO27j8jB1cmiwa-8" value="Image Loader" style="shape=rect;strokeColor=none;fillColor=#008cff;strokeWidth=1;dashed=0;rounded=1;arcSize=20;fontColor=#ffffff;fontSize=17;spacing=2;spacingTop=-2;align=left;autosize=1;spacingLeft=4;resizeWidth=0;resizeHeight=0;perimeter=none;html=1;whiteSpace=wrap;" vertex="1" parent="sGLYkjMO27j8jB1cmiwa-7">
          <mxGeometry x="5" width="130" height="30" as="geometry" />
        </mxCell>
        <mxCell id="H2jxY5U8lig59B_fxIUB-10" value="Directory" style="whiteSpace=wrap;html=1;strokeColor=#FFFFFF;fontColor=#FFFFFF;fillColor=#182E3E;fontSize=16;fontStyle=1" vertex="1" parent="sGLYkjMO27j8jB1cmiwa-7">
          <mxGeometry x="10" y="40" width="260" height="40" as="geometry" />
        </mxCell>
        <mxCell id="H2jxY5U8lig59B_fxIUB-11" value="Files" style="whiteSpace=wrap;html=1;strokeColor=#FFFFFF;fontColor=#FFFFFF;fillColor=#182E3E;fontSize=16;fontStyle=1" vertex="1" parent="sGLYkjMO27j8jB1cmiwa-7">
          <mxGeometry x="270" y="40" width="60" height="40" as="geometry" />
        </mxCell>
        <mxCell id="H2jxY5U8lig59B_fxIUB-12" value="" style="whiteSpace=wrap;html=1;strokeColor=#FFFFFF;fontColor=#FFFFFF;fillColor=#182E3E;" vertex="1" parent="sGLYkjMO27j8jB1cmiwa-7">
          <mxGeometry x="10" y="80" width="320" height="620" as="geometry" />
        </mxCell>
        <mxCell id="r8GJR6RvqAK0Z7T6UhHm-0" value="" style="html=1;shadow=0;dashed=0;align=center;verticalAlign=middle;shape=mxgraph.arrows2.arrow;dy=0;dx=30;notch=30;strokeColor=#FFFFFF;fontColor=#FFFFFF;fillColor=#182E3E;" vertex="1" parent="sGLYkjMO27j8jB1cmiwa-1">
          <mxGeometry x="300" y="170" width="100" height="60" as="geometry" />
        </mxCell>
        <mxCell id="Y3K2k-p9ZKK7vGbOh9vh-0" value="" style="group" vertex="1" connectable="0" parent="sGLYkjMO27j8jB1cmiwa-1">
          <mxGeometry x="362.5" y="160" width="175" height="100" as="geometry" />
        </mxCell>
        <UserObject label="&lt;font style=&quot;font-size: 32px;&quot;&gt;&lt;b&gt;+&lt;/b&gt;&lt;/font&gt;" id="Y3K2k-p9ZKK7vGbOh9vh-1">
          <mxCell style="ellipse;whiteSpace=wrap;html=1;strokeColor=#FFFFFF;fillColor=#182E3E;labelBackgroundColor=none;fontColor=#FFFFFF;shadow=0;aspect=fixed;" vertex="1" parent="Y3K2k-p9ZKK7vGbOh9vh-0">
            <mxGeometry x="57.5" width="60" height="60" as="geometry" />
          </mxCell>
        </UserObject>
        <mxCell id="Y3K2k-p9ZKK7vGbOh9vh-2" value="&lt;div style=&quot;font-size: 16px;&quot;&gt;Add Module&lt;br style=&quot;font-size: 16px;&quot;&gt;&lt;/div&gt;" style="text;html=1;strokeColor=none;fillColor=none;align=center;verticalAlign=middle;whiteSpace=wrap;rounded=0;fontColor=#FFFFFF;fontStyle=1;fontSize=16;" vertex="1" parent="Y3K2k-p9ZKK7vGbOh9vh-0">
          <mxGeometry y="70" width="175" height="30" as="geometry" />
        </mxCell>
      </root>
    </mxGraphModel>
  </diagram>
  <diagram name="ProcessingModulePageRotation" id="VNy_x9ZEN6lF7U0V-27q">
    <mxGraphModel dx="1728" dy="922" grid="1" gridSize="10" guides="1" tooltips="1" connect="1" arrows="1" fold="1" page="1" pageScale="1" pageWidth="1600" pageHeight="900" math="0" shadow="0">
      <root>
        <mxCell id="SKFq8kWOSzVU3YflYjA9-0" />
        <mxCell id="SKFq8kWOSzVU3YflYjA9-1" parent="SKFq8kWOSzVU3YflYjA9-0" />
        <UserObject label="D" link="data:page/id,4QHCHEwzM7NgPZoShcnq" id="SKFq8kWOSzVU3YflYjA9-2">
          <mxCell style="strokeWidth=1;shadow=0;dashed=0;align=center;html=1;shape=mxgraph.mockup.containers.window;align=left;verticalAlign=top;spacingLeft=8;strokeColor2=#008cff;strokeColor3=#c4c4c4;fontColor=#FFFFFF;mainText=;fontSize=17;labelBackgroundColor=none;whiteSpace=wrap;strokeColor=#FFFFFF;fillColor=#182E3E;" vertex="1" parent="SKFq8kWOSzVU3YflYjA9-1">
            <mxGeometry x="80" y="40" width="1400" height="790" as="geometry" />
          </mxCell>
        </UserObject>
        <UserObject label="" link="data:page/id,hgLcFoqbssjTXuBi4_AG" id="SKFq8kWOSzVU3YflYjA9-3">
          <mxCell style="shape=mxgraph.mockup.containers.marginRect;rectMarginTop=10;strokeColor=#70888f;strokeWidth=1;dashed=0;rounded=1;arcSize=5;recursiveResize=0;html=1;whiteSpace=wrap;fontColor=#FFFFFF;fillColor=#182E3E;" vertex="1" parent="SKFq8kWOSzVU3YflYjA9-1">
            <mxGeometry x="110" y="90" width="180" height="200" as="geometry" />
          </mxCell>
        </UserObject>
        <mxCell id="SKFq8kWOSzVU3YflYjA9-4" value="&lt;div&gt;Image Loader&lt;/div&gt;" style="shape=rect;strokeColor=none;fillColor=#008cff;strokeWidth=1;dashed=0;rounded=1;arcSize=20;fontColor=#ffffff;fontSize=17;spacing=2;spacingTop=-2;align=left;autosize=1;spacingLeft=4;resizeWidth=0;resizeHeight=0;perimeter=none;html=1;whiteSpace=wrap;" vertex="1" parent="SKFq8kWOSzVU3YflYjA9-3">
          <mxGeometry x="5" width="130" height="30" as="geometry" />
        </mxCell>
        <UserObject label="&lt;font style=&quot;font-size: 32px;&quot;&gt;&lt;b&gt;+&lt;/b&gt;&lt;/font&gt;" link="data:page/id,UpVtdRNt34tTqxoJonI-" id="SKFq8kWOSzVU3YflYjA9-5">
          <mxCell style="ellipse;whiteSpace=wrap;html=1;strokeColor=#FFFFFF;fillColor=#182E3E;labelBackgroundColor=none;fontColor=#FFFFFF;shadow=0;aspect=fixed;" vertex="1" parent="SKFq8kWOSzVU3YflYjA9-3">
            <mxGeometry x="60" y="70" width="60" height="60" as="geometry" />
          </mxCell>
        </UserObject>
        <mxCell id="SKFq8kWOSzVU3YflYjA9-6" value="&lt;div style=&quot;font-size: 16px;&quot;&gt;Add directory&lt;br style=&quot;font-size: 16px;&quot;&gt;&lt;/div&gt;" style="text;html=1;strokeColor=none;fillColor=none;align=center;verticalAlign=middle;whiteSpace=wrap;rounded=0;fontColor=#FFFFFF;fontStyle=1;fontSize=16;" vertex="1" parent="SKFq8kWOSzVU3YflYjA9-3">
          <mxGeometry x="2.5" y="140" width="175" height="30" as="geometry" />
        </mxCell>
        <mxCell id="SKFq8kWOSzVU3YflYjA9-7" value="" style="shape=mxgraph.mockup.containers.marginRect;rectMarginTop=10;strokeColor=#666666;strokeWidth=1;dashed=0;rounded=1;arcSize=5;recursiveResize=0;html=1;whiteSpace=wrap;fontColor=#FFFFFF;fillColor=#182E3E;" vertex="1" parent="SKFq8kWOSzVU3YflYjA9-1">
          <mxGeometry x="1120" y="80" width="340" height="720" as="geometry" />
        </mxCell>
        <mxCell id="SKFq8kWOSzVU3YflYjA9-8" value="Processing Module Configuration" style="shape=rect;strokeColor=none;fillColor=#008cff;strokeWidth=1;dashed=0;rounded=1;arcSize=20;fontColor=#ffffff;fontSize=17;spacing=2;spacingTop=-2;align=left;autosize=1;spacingLeft=4;resizeWidth=0;resizeHeight=0;perimeter=none;html=1;whiteSpace=wrap;" vertex="1" parent="SKFq8kWOSzVU3YflYjA9-7">
          <mxGeometry x="5" width="280" height="30" as="geometry" />
        </mxCell>
        <mxCell id="SKFq8kWOSzVU3YflYjA9-9" value="Parameter" style="whiteSpace=wrap;html=1;strokeColor=#FFFFFF;fontColor=#FFFFFF;fillColor=#182E3E;fontSize=16;fontStyle=1" vertex="1" parent="SKFq8kWOSzVU3YflYjA9-7">
          <mxGeometry x="10" y="40" width="170" height="40" as="geometry" />
        </mxCell>
        <mxCell id="SKFq8kWOSzVU3YflYjA9-10" value="Value" style="whiteSpace=wrap;html=1;strokeColor=#FFFFFF;fontColor=#FFFFFF;fillColor=#182E3E;fontSize=16;fontStyle=1" vertex="1" parent="SKFq8kWOSzVU3YflYjA9-7">
          <mxGeometry x="180" y="40" width="150" height="40" as="geometry" />
        </mxCell>
        <mxCell id="SKFq8kWOSzVU3YflYjA9-11" value="" style="whiteSpace=wrap;html=1;strokeColor=#FFFFFF;fontColor=#FFFFFF;fillColor=#182E3E;" vertex="1" parent="SKFq8kWOSzVU3YflYjA9-7">
          <mxGeometry x="10" y="80" width="320" height="620" as="geometry" />
        </mxCell>
        <mxCell id="i6L3_rqYi2wgmi7N0PD3-6" value="Angle" style="whiteSpace=wrap;html=1;strokeColor=#FFFFFF;fontColor=#FFFFFF;fillColor=#182E3E;fontSize=16;fontStyle=1" vertex="1" parent="SKFq8kWOSzVU3YflYjA9-7">
          <mxGeometry x="10" y="90" width="170" height="40" as="geometry" />
        </mxCell>
        <mxCell id="i6L3_rqYi2wgmi7N0PD3-7" value="90 deg." style="whiteSpace=wrap;html=1;strokeColor=#FFFFFF;fontColor=#FFFFFF;fillColor=#182E3E;fontSize=16;fontStyle=1" vertex="1" parent="SKFq8kWOSzVU3YflYjA9-7">
          <mxGeometry x="180" y="90" width="150" height="40" as="geometry" />
        </mxCell>
        <mxCell id="SKFq8kWOSzVU3YflYjA9-12" value="" style="html=1;shadow=0;dashed=0;align=center;verticalAlign=middle;shape=mxgraph.arrows2.arrow;dy=0;dx=30;notch=30;strokeColor=#FFFFFF;fontColor=#FFFFFF;fillColor=#182E3E;" vertex="1" parent="SKFq8kWOSzVU3YflYjA9-1">
          <mxGeometry x="300" y="170" width="100" height="60" as="geometry" />
        </mxCell>
        <UserObject label="" id="SKFq8kWOSzVU3YflYjA9-13">
          <mxCell style="shape=mxgraph.mockup.containers.marginRect;rectMarginTop=10;strokeColor=#666666;strokeWidth=5;dashed=0;rounded=1;arcSize=5;recursiveResize=0;html=1;whiteSpace=wrap;fontColor=#FFFFFF;fillColor=#182E3E;" vertex="1" parent="SKFq8kWOSzVU3YflYjA9-1">
            <mxGeometry x="410" y="90" width="180" height="200" as="geometry" />
          </mxCell>
        </UserObject>
        <mxCell id="SKFq8kWOSzVU3YflYjA9-14" value="Rotation" style="shape=rect;strokeColor=none;fillColor=#008cff;strokeWidth=1;dashed=0;rounded=1;arcSize=20;fontColor=#ffffff;fontSize=17;spacing=2;spacingTop=-2;align=left;autosize=1;spacingLeft=4;resizeWidth=0;resizeHeight=0;perimeter=none;html=1;whiteSpace=wrap;" vertex="1" parent="SKFq8kWOSzVU3YflYjA9-13">
          <mxGeometry x="5" width="90" height="30" as="geometry" />
        </mxCell>
        <UserObject label="&lt;font style=&quot;font-size: 32px;&quot;&gt;&lt;b&gt;+&lt;/b&gt;&lt;/font&gt;" id="SKFq8kWOSzVU3YflYjA9-15">
          <mxCell style="ellipse;whiteSpace=wrap;html=1;strokeColor=#FFFFFF;fillColor=#182E3E;labelBackgroundColor=none;fontColor=#FFFFFF;shadow=0;aspect=fixed;" vertex="1" parent="SKFq8kWOSzVU3YflYjA9-13">
            <mxGeometry x="60" y="70" width="60" height="60" as="geometry" />
          </mxCell>
        </UserObject>
        <mxCell id="SKFq8kWOSzVU3YflYjA9-16" value="&lt;div style=&quot;font-size: 16px;&quot;&gt;Add Module&lt;br&gt;&lt;/div&gt;" style="text;html=1;strokeColor=none;fillColor=none;align=center;verticalAlign=middle;whiteSpace=wrap;rounded=0;fontColor=#FFFFFF;fontStyle=1;fontSize=16;" vertex="1" parent="SKFq8kWOSzVU3YflYjA9-13">
          <mxGeometry x="2.5" y="140" width="175" height="30" as="geometry" />
        </mxCell>
        <UserObject label="X" link="data:page/id,4QHCHEwzM7NgPZoShcnq" id="i6L3_rqYi2wgmi7N0PD3-8">
          <mxCell style="whiteSpace=wrap;html=1;strokeColor=#C73500;fontColor=#FFFFFF;fillColor=#fa6800;fontSize=16;fontStyle=1" vertex="1" parent="SKFq8kWOSzVU3YflYjA9-13">
            <mxGeometry x="130" y="20" width="40" height="40" as="geometry" />
          </mxCell>
        </UserObject>
        <mxCell id="0AKEfZ34rkabN835POZt-0" value="" style="group" vertex="1" connectable="0" parent="SKFq8kWOSzVU3YflYjA9-1">
          <mxGeometry x="692.5" y="160" width="175" height="100" as="geometry" />
        </mxCell>
        <UserObject label="&lt;font style=&quot;font-size: 32px;&quot;&gt;&lt;b&gt;+&lt;/b&gt;&lt;/font&gt;" id="0AKEfZ34rkabN835POZt-1">
          <mxCell style="ellipse;whiteSpace=wrap;html=1;strokeColor=#FFFFFF;fillColor=#182E3E;labelBackgroundColor=none;fontColor=#FFFFFF;shadow=0;aspect=fixed;" vertex="1" parent="0AKEfZ34rkabN835POZt-0">
            <mxGeometry x="57.5" width="60" height="60" as="geometry" />
          </mxCell>
        </UserObject>
        <mxCell id="0AKEfZ34rkabN835POZt-2" value="&lt;div style=&quot;font-size: 16px;&quot;&gt;Add Module&lt;br style=&quot;font-size: 16px;&quot;&gt;&lt;/div&gt;" style="text;html=1;strokeColor=none;fillColor=none;align=center;verticalAlign=middle;whiteSpace=wrap;rounded=0;fontColor=#FFFFFF;fontStyle=1;fontSize=16;" vertex="1" parent="0AKEfZ34rkabN835POZt-0">
          <mxGeometry y="70" width="175" height="30" as="geometry" />
        </mxCell>
        <mxCell id="0AKEfZ34rkabN835POZt-3" value="" style="html=1;shadow=0;dashed=0;align=center;verticalAlign=middle;shape=mxgraph.arrows2.arrow;dy=0;dx=30;notch=30;strokeColor=#FFFFFF;fontColor=#FFFFFF;fillColor=#182E3E;" vertex="1" parent="SKFq8kWOSzVU3YflYjA9-1">
          <mxGeometry x="610" y="170" width="100" height="60" as="geometry" />
        </mxCell>
      </root>
    </mxGraphModel>
  </diagram>
  <diagram name="ProcessingModulePageBoxCropper" id="h1OTeUkrut5GULpc_ItQ">
    <mxGraphModel dx="2074" dy="1106" grid="1" gridSize="10" guides="1" tooltips="1" connect="1" arrows="1" fold="1" page="1" pageScale="1" pageWidth="1600" pageHeight="900" math="0" shadow="0">
      <root>
        <mxCell id="LH34y7n98yYIbcsCo41Y-0" />
        <mxCell id="LH34y7n98yYIbcsCo41Y-1" parent="LH34y7n98yYIbcsCo41Y-0" />
        <UserObject label="D" link="data:page/id,4QHCHEwzM7NgPZoShcnq" id="LH34y7n98yYIbcsCo41Y-2">
          <mxCell style="strokeWidth=1;shadow=0;dashed=0;align=center;html=1;shape=mxgraph.mockup.containers.window;align=left;verticalAlign=top;spacingLeft=8;strokeColor2=#008cff;strokeColor3=#c4c4c4;fontColor=#FFFFFF;mainText=;fontSize=17;labelBackgroundColor=none;whiteSpace=wrap;strokeColor=#FFFFFF;fillColor=#182E3E;" vertex="1" parent="LH34y7n98yYIbcsCo41Y-1">
            <mxGeometry x="80" y="40" width="1400" height="790" as="geometry" />
          </mxCell>
        </UserObject>
        <UserObject label="" link="data:page/id,hgLcFoqbssjTXuBi4_AG" id="LH34y7n98yYIbcsCo41Y-3">
          <mxCell style="shape=mxgraph.mockup.containers.marginRect;rectMarginTop=10;strokeColor=#70888f;strokeWidth=1;dashed=0;rounded=1;arcSize=5;recursiveResize=0;html=1;whiteSpace=wrap;fontColor=#FFFFFF;fillColor=#182E3E;" vertex="1" parent="LH34y7n98yYIbcsCo41Y-1">
            <mxGeometry x="110" y="90" width="180" height="200" as="geometry" />
          </mxCell>
        </UserObject>
        <mxCell id="LH34y7n98yYIbcsCo41Y-4" value="&lt;div&gt;Image Loader&lt;/div&gt;" style="shape=rect;strokeColor=none;fillColor=#008cff;strokeWidth=1;dashed=0;rounded=1;arcSize=20;fontColor=#ffffff;fontSize=17;spacing=2;spacingTop=-2;align=left;autosize=1;spacingLeft=4;resizeWidth=0;resizeHeight=0;perimeter=none;html=1;whiteSpace=wrap;" vertex="1" parent="LH34y7n98yYIbcsCo41Y-3">
          <mxGeometry x="5" width="130" height="30" as="geometry" />
        </mxCell>
        <UserObject label="&lt;font style=&quot;font-size: 32px;&quot;&gt;&lt;b&gt;+&lt;/b&gt;&lt;/font&gt;" link="data:page/id,UpVtdRNt34tTqxoJonI-" id="LH34y7n98yYIbcsCo41Y-5">
          <mxCell style="ellipse;whiteSpace=wrap;html=1;strokeColor=#FFFFFF;fillColor=#182E3E;labelBackgroundColor=none;fontColor=#FFFFFF;shadow=0;aspect=fixed;" vertex="1" parent="LH34y7n98yYIbcsCo41Y-3">
            <mxGeometry x="60" y="70" width="60" height="60" as="geometry" />
          </mxCell>
        </UserObject>
        <mxCell id="LH34y7n98yYIbcsCo41Y-6" value="&lt;div style=&quot;font-size: 16px;&quot;&gt;Add directory&lt;br style=&quot;font-size: 16px;&quot;&gt;&lt;/div&gt;" style="text;html=1;strokeColor=none;fillColor=none;align=center;verticalAlign=middle;whiteSpace=wrap;rounded=0;fontColor=#FFFFFF;fontStyle=1;fontSize=16;" vertex="1" parent="LH34y7n98yYIbcsCo41Y-3">
          <mxGeometry x="2.5" y="140" width="175" height="30" as="geometry" />
        </mxCell>
        <mxCell id="LH34y7n98yYIbcsCo41Y-7" value="" style="shape=mxgraph.mockup.containers.marginRect;rectMarginTop=10;strokeColor=#666666;strokeWidth=1;dashed=0;rounded=1;arcSize=5;recursiveResize=0;html=1;whiteSpace=wrap;fontColor=#FFFFFF;fillColor=#182E3E;" vertex="1" parent="LH34y7n98yYIbcsCo41Y-1">
          <mxGeometry x="1120" y="80" width="340" height="720" as="geometry" />
        </mxCell>
        <mxCell id="LH34y7n98yYIbcsCo41Y-8" value="Processing Module Configuration" style="shape=rect;strokeColor=none;fillColor=#008cff;strokeWidth=1;dashed=0;rounded=1;arcSize=20;fontColor=#ffffff;fontSize=17;spacing=2;spacingTop=-2;align=left;autosize=1;spacingLeft=4;resizeWidth=0;resizeHeight=0;perimeter=none;html=1;whiteSpace=wrap;" vertex="1" parent="LH34y7n98yYIbcsCo41Y-7">
          <mxGeometry x="5" width="280" height="30" as="geometry" />
        </mxCell>
        <mxCell id="LH34y7n98yYIbcsCo41Y-9" value="Parameter" style="whiteSpace=wrap;html=1;strokeColor=#FFFFFF;fontColor=#FFFFFF;fillColor=#182E3E;fontSize=16;fontStyle=1" vertex="1" parent="LH34y7n98yYIbcsCo41Y-7">
          <mxGeometry x="10" y="40" width="170" height="40" as="geometry" />
        </mxCell>
        <mxCell id="LH34y7n98yYIbcsCo41Y-10" value="Value" style="whiteSpace=wrap;html=1;strokeColor=#FFFFFF;fontColor=#FFFFFF;fillColor=#182E3E;fontSize=16;fontStyle=1" vertex="1" parent="LH34y7n98yYIbcsCo41Y-7">
          <mxGeometry x="180" y="40" width="150" height="40" as="geometry" />
        </mxCell>
        <mxCell id="LH34y7n98yYIbcsCo41Y-11" value="" style="whiteSpace=wrap;html=1;strokeColor=#FFFFFF;fontColor=#FFFFFF;fillColor=#182E3E;" vertex="1" parent="LH34y7n98yYIbcsCo41Y-7">
          <mxGeometry x="10" y="80" width="320" height="620" as="geometry" />
        </mxCell>
        <mxCell id="LH34y7n98yYIbcsCo41Y-12" value="Angle" style="whiteSpace=wrap;html=1;strokeColor=#FFFFFF;fontColor=#FFFFFF;fillColor=#182E3E;fontSize=16;fontStyle=1" vertex="1" parent="LH34y7n98yYIbcsCo41Y-7">
          <mxGeometry x="10" y="90" width="170" height="40" as="geometry" />
        </mxCell>
        <mxCell id="LH34y7n98yYIbcsCo41Y-13" value="90 deg." style="whiteSpace=wrap;html=1;strokeColor=#FFFFFF;fontColor=#FFFFFF;fillColor=#182E3E;fontSize=16;fontStyle=1" vertex="1" parent="LH34y7n98yYIbcsCo41Y-7">
          <mxGeometry x="180" y="90" width="150" height="40" as="geometry" />
        </mxCell>
        <mxCell id="LH34y7n98yYIbcsCo41Y-14" value="" style="html=1;shadow=0;dashed=0;align=center;verticalAlign=middle;shape=mxgraph.arrows2.arrow;dy=0;dx=30;notch=30;strokeColor=#FFFFFF;fontColor=#FFFFFF;fillColor=#182E3E;" vertex="1" parent="LH34y7n98yYIbcsCo41Y-1">
          <mxGeometry x="300" y="170" width="100" height="60" as="geometry" />
        </mxCell>
        <UserObject label="" id="LH34y7n98yYIbcsCo41Y-15">
          <mxCell style="shape=mxgraph.mockup.containers.marginRect;rectMarginTop=10;strokeColor=#666666;strokeWidth=5;dashed=0;rounded=1;arcSize=5;recursiveResize=0;html=1;whiteSpace=wrap;fontColor=#FFFFFF;fillColor=#182E3E;fontSize=16;fontStyle=1" vertex="1" parent="LH34y7n98yYIbcsCo41Y-1">
            <mxGeometry x="410" y="90" width="180" height="200" as="geometry" />
          </mxCell>
        </UserObject>
        <mxCell id="LH34y7n98yYIbcsCo41Y-16" value="Box Cropper" style="shape=rect;strokeColor=none;fillColor=#008cff;strokeWidth=1;dashed=0;rounded=1;arcSize=20;fontColor=#ffffff;fontSize=17;spacing=2;spacingTop=-2;align=left;autosize=1;spacingLeft=4;resizeWidth=0;resizeHeight=0;perimeter=none;html=1;whiteSpace=wrap;" vertex="1" parent="LH34y7n98yYIbcsCo41Y-15">
          <mxGeometry x="5" width="125" height="30" as="geometry" />
        </mxCell>
        <UserObject label="&lt;span style=&quot;font-size: 16px;&quot;&gt;X&lt;/span&gt;" id="ci7Ci-MbCtguAnwVqPTI-0">
          <mxCell style="ellipse;whiteSpace=wrap;html=1;strokeColor=#C73500;fillColor=#fa6800;labelBackgroundColor=none;fontColor=#000000;shadow=0;aspect=fixed;fontStyle=1;fontSize=16;" vertex="1" parent="LH34y7n98yYIbcsCo41Y-15">
            <mxGeometry x="60" y="70" width="60" height="60" as="geometry" />
          </mxCell>
        </UserObject>
        <mxCell id="LH34y7n98yYIbcsCo41Y-20" value="" style="group" vertex="1" connectable="0" parent="LH34y7n98yYIbcsCo41Y-1">
          <mxGeometry x="692.5" y="160" width="175" height="100" as="geometry" />
        </mxCell>
        <UserObject label="&lt;font style=&quot;font-size: 32px;&quot;&gt;&lt;b&gt;+&lt;/b&gt;&lt;/font&gt;" id="LH34y7n98yYIbcsCo41Y-21">
          <mxCell style="ellipse;whiteSpace=wrap;html=1;strokeColor=#FFFFFF;fillColor=#182E3E;labelBackgroundColor=none;fontColor=#FFFFFF;shadow=0;aspect=fixed;" vertex="1" parent="LH34y7n98yYIbcsCo41Y-20">
            <mxGeometry x="57.5" width="60" height="60" as="geometry" />
          </mxCell>
        </UserObject>
        <mxCell id="LH34y7n98yYIbcsCo41Y-22" value="&lt;div style=&quot;font-size: 16px;&quot;&gt;Add Module&lt;br style=&quot;font-size: 16px;&quot;&gt;&lt;/div&gt;" style="text;html=1;strokeColor=none;fillColor=none;align=center;verticalAlign=middle;whiteSpace=wrap;rounded=0;fontColor=#FFFFFF;fontStyle=1;fontSize=16;" vertex="1" parent="LH34y7n98yYIbcsCo41Y-20">
          <mxGeometry y="70" width="175" height="30" as="geometry" />
        </mxCell>
        <mxCell id="LH34y7n98yYIbcsCo41Y-23" value="" style="html=1;shadow=0;dashed=0;align=center;verticalAlign=middle;shape=mxgraph.arrows2.arrow;dy=0;dx=30;notch=30;strokeColor=#FFFFFF;fontColor=#FFFFFF;fillColor=#182E3E;" vertex="1" parent="LH34y7n98yYIbcsCo41Y-1">
          <mxGeometry x="610" y="170" width="100" height="60" as="geometry" />
        </mxCell>
      </root>
    </mxGraphModel>
  </diagram>
  <diagram name="ImageLoaderPagePop1" id="L4UjyRlpWGMJG6V8UAFS">
    <mxGraphModel dx="2074" dy="1106" grid="1" gridSize="10" guides="1" tooltips="1" connect="1" arrows="1" fold="1" page="1" pageScale="1" pageWidth="1600" pageHeight="900" math="0" shadow="0">
      <root>
        <mxCell id="LS8I0TFGBgkUEtRNsie5-0" />
        <mxCell id="LS8I0TFGBgkUEtRNsie5-1" parent="LS8I0TFGBgkUEtRNsie5-0" />
        <UserObject label="&lt;div&gt;DrawerCollector&lt;/div&gt;&lt;div&gt;&lt;br&gt;&lt;/div&gt;" link="data:page/id,4QHCHEwzM7NgPZoShcnq" id="LS8I0TFGBgkUEtRNsie5-2">
          <mxCell style="strokeWidth=1;shadow=0;dashed=0;align=center;html=1;shape=mxgraph.mockup.containers.window;align=left;verticalAlign=top;spacingLeft=8;strokeColor2=#008cff;strokeColor3=#c4c4c4;fontColor=#FFFFFF;mainText=;fontSize=17;labelBackgroundColor=none;whiteSpace=wrap;strokeColor=#FFFFFF;fillColor=#182E3E;" vertex="1" parent="LS8I0TFGBgkUEtRNsie5-1">
            <mxGeometry x="80" y="40" width="1400" height="790" as="geometry" />
          </mxCell>
        </UserObject>
        <mxCell id="LS8I0TFGBgkUEtRNsie5-3" value="" style="shape=mxgraph.mockup.containers.marginRect;rectMarginTop=10;strokeColor=#70888f;strokeWidth=5;dashed=0;rounded=1;arcSize=5;recursiveResize=0;html=1;whiteSpace=wrap;fontColor=#FFFFFF;fillColor=#182E3E;" vertex="1" parent="LS8I0TFGBgkUEtRNsie5-1">
          <mxGeometry x="110" y="90" width="180" height="200" as="geometry" />
        </mxCell>
        <mxCell id="LS8I0TFGBgkUEtRNsie5-4" value="&lt;div&gt;Image Loader&lt;/div&gt;" style="shape=rect;strokeColor=none;fillColor=#008cff;strokeWidth=1;dashed=0;rounded=1;arcSize=20;fontColor=#ffffff;fontSize=17;spacing=2;spacingTop=-2;align=left;autosize=1;spacingLeft=4;resizeWidth=0;resizeHeight=0;perimeter=none;html=1;whiteSpace=wrap;" vertex="1" parent="LS8I0TFGBgkUEtRNsie5-3">
          <mxGeometry x="5" width="130" height="30" as="geometry" />
        </mxCell>
        <UserObject label="&lt;font style=&quot;font-size: 32px;&quot;&gt;&lt;b&gt;+&lt;/b&gt;&lt;/font&gt;" link="data:page/id,UpVtdRNt34tTqxoJonI-" id="LS8I0TFGBgkUEtRNsie5-5">
          <mxCell style="ellipse;whiteSpace=wrap;html=1;strokeColor=#FFFFFF;fillColor=#182E3E;labelBackgroundColor=none;fontColor=#FFFFFF;shadow=0;aspect=fixed;" vertex="1" parent="LS8I0TFGBgkUEtRNsie5-3">
            <mxGeometry x="60" y="70" width="60" height="60" as="geometry" />
          </mxCell>
        </UserObject>
        <mxCell id="LS8I0TFGBgkUEtRNsie5-6" value="&lt;div style=&quot;font-size: 16px;&quot;&gt;Add directory&lt;br style=&quot;font-size: 16px;&quot;&gt;&lt;/div&gt;" style="text;html=1;strokeColor=none;fillColor=none;align=center;verticalAlign=middle;whiteSpace=wrap;rounded=0;fontColor=#FFFFFF;fontStyle=1;fontSize=16;" vertex="1" parent="LS8I0TFGBgkUEtRNsie5-3">
          <mxGeometry x="2.5" y="140" width="175" height="30" as="geometry" />
        </mxCell>
        <mxCell id="LS8I0TFGBgkUEtRNsie5-7" value="" style="shape=mxgraph.mockup.containers.marginRect;rectMarginTop=10;strokeColor=#666666;strokeWidth=1;dashed=0;rounded=1;arcSize=5;recursiveResize=0;html=1;whiteSpace=wrap;fontColor=#FFFFFF;fillColor=#182E3E;" vertex="1" parent="LS8I0TFGBgkUEtRNsie5-1">
          <mxGeometry x="1120" y="80" width="340" height="720" as="geometry" />
        </mxCell>
        <mxCell id="LS8I0TFGBgkUEtRNsie5-8" value="Image Loader" style="shape=rect;strokeColor=none;fillColor=#008cff;strokeWidth=1;dashed=0;rounded=1;arcSize=20;fontColor=#ffffff;fontSize=17;spacing=2;spacingTop=-2;align=left;autosize=1;spacingLeft=4;resizeWidth=0;resizeHeight=0;perimeter=none;html=1;whiteSpace=wrap;" vertex="1" parent="LS8I0TFGBgkUEtRNsie5-7">
          <mxGeometry x="5" width="130" height="30" as="geometry" />
        </mxCell>
        <mxCell id="LS8I0TFGBgkUEtRNsie5-9" value="Directory" style="whiteSpace=wrap;html=1;strokeColor=#FFFFFF;fontColor=#FFFFFF;fillColor=#182E3E;fontSize=16;fontStyle=1" vertex="1" parent="LS8I0TFGBgkUEtRNsie5-7">
          <mxGeometry x="10" y="40" width="260" height="40" as="geometry" />
        </mxCell>
        <mxCell id="LS8I0TFGBgkUEtRNsie5-10" value="Files" style="whiteSpace=wrap;html=1;strokeColor=#FFFFFF;fontColor=#FFFFFF;fillColor=#182E3E;fontSize=16;fontStyle=1" vertex="1" parent="LS8I0TFGBgkUEtRNsie5-7">
          <mxGeometry x="270" y="40" width="60" height="40" as="geometry" />
        </mxCell>
        <mxCell id="LS8I0TFGBgkUEtRNsie5-11" value="" style="whiteSpace=wrap;html=1;strokeColor=#FFFFFF;fontColor=#FFFFFF;fillColor=#182E3E;" vertex="1" parent="LS8I0TFGBgkUEtRNsie5-7">
          <mxGeometry x="10" y="80" width="320" height="620" as="geometry" />
        </mxCell>
        <mxCell id="LS8I0TFGBgkUEtRNsie5-12" value="dir/to/images" style="whiteSpace=wrap;html=1;strokeColor=#FFFFFF;fontColor=#FFFFFF;fillColor=#182E3E;fontSize=16;" vertex="1" parent="LS8I0TFGBgkUEtRNsie5-7">
          <mxGeometry x="60" y="90" width="210" height="30" as="geometry" />
        </mxCell>
        <UserObject label="X" link="data:page/id,hgLcFoqbssjTXuBi4_AG" id="LS8I0TFGBgkUEtRNsie5-13">
          <mxCell style="whiteSpace=wrap;html=1;strokeColor=#FFFFFF;fontColor=#000000;fillColor=#fa6800;fontSize=18;fontStyle=1" vertex="1" parent="LS8I0TFGBgkUEtRNsie5-7">
            <mxGeometry x="20" y="90" width="30" height="30" as="geometry" />
          </mxCell>
        </UserObject>
        <mxCell id="LS8I0TFGBgkUEtRNsie5-14" value="258" style="whiteSpace=wrap;html=1;strokeColor=#FFFFFF;fontColor=#FFFFFF;fillColor=#182E3E;fontSize=16;" vertex="1" parent="LS8I0TFGBgkUEtRNsie5-7">
          <mxGeometry x="270" y="90" width="60" height="30" as="geometry" />
        </mxCell>
        <mxCell id="Mlfp9aUfMrSS_lraDaUJ-0" value="" style="html=1;shadow=0;dashed=0;align=center;verticalAlign=middle;shape=mxgraph.arrows2.arrow;dy=0;dx=30;notch=30;strokeColor=#FFFFFF;fontColor=#FFFFFF;fillColor=#182E3E;" vertex="1" parent="LS8I0TFGBgkUEtRNsie5-1">
          <mxGeometry x="300" y="170" width="100" height="60" as="geometry" />
        </mxCell>
        <mxCell id="cnRpYXeN-PJuOhf2FDTX-0" value="" style="group" vertex="1" connectable="0" parent="LS8I0TFGBgkUEtRNsie5-1">
          <mxGeometry x="362.5" y="160" width="175" height="100" as="geometry" />
        </mxCell>
        <UserObject label="&lt;font style=&quot;font-size: 32px;&quot;&gt;&lt;b&gt;+&lt;/b&gt;&lt;/font&gt;" id="cnRpYXeN-PJuOhf2FDTX-1">
          <mxCell style="ellipse;whiteSpace=wrap;html=1;strokeColor=#FFFFFF;fillColor=#182E3E;labelBackgroundColor=none;fontColor=#FFFFFF;shadow=0;aspect=fixed;" vertex="1" parent="cnRpYXeN-PJuOhf2FDTX-0">
            <mxGeometry x="57.5" width="60" height="60" as="geometry" />
          </mxCell>
        </UserObject>
        <mxCell id="cnRpYXeN-PJuOhf2FDTX-2" value="&lt;div style=&quot;font-size: 16px;&quot;&gt;Add Module&lt;br style=&quot;font-size: 16px;&quot;&gt;&lt;/div&gt;" style="text;html=1;strokeColor=none;fillColor=none;align=center;verticalAlign=middle;whiteSpace=wrap;rounded=0;fontColor=#FFFFFF;fontStyle=1;fontSize=16;" vertex="1" parent="cnRpYXeN-PJuOhf2FDTX-0">
          <mxGeometry y="70" width="175" height="30" as="geometry" />
        </mxCell>
      </root>
    </mxGraphModel>
  </diagram>
  <diagram id="UpVtdRNt34tTqxoJonI-" name="LoadImages">
    <mxGraphModel dx="2074" dy="1106" grid="1" gridSize="10" guides="1" tooltips="1" connect="1" arrows="1" fold="1" page="1" pageScale="1" pageWidth="1600" pageHeight="900" math="0" shadow="0">
      <root>
        <mxCell id="0" />
        <mxCell id="1" parent="0" />
        <mxCell id="T7Rag0QeMTrIFnwHBxU2-1" value="" style="shape=image;verticalLabelPosition=bottom;labelBackgroundColor=default;verticalAlign=top;aspect=fixed;imageAspect=0;image=https://www.windowslatest.com/wp-content/uploads/2018/07/File-Picker-in-Windows-10.jpg;" vertex="1" parent="1">
          <mxGeometry x="160" y="50" width="1136.98" height="680" as="geometry" />
        </mxCell>
        <UserObject label="X" link="data:page/id,hgLcFoqbssjTXuBi4_AG" id="CbkHkxZVTPM2tbGyV_iT-1">
          <mxCell style="whiteSpace=wrap;html=1;glass=0;fontSize=18;fontStyle=1;strokeColor=#314354;fillColor=#647687;fontColor=#ffffff;" vertex="1" parent="1">
            <mxGeometry x="1251" y="52" width="45" height="34" as="geometry" />
          </mxCell>
        </UserObject>
        <UserObject label="Add this folder" link="data:page/id,L4UjyRlpWGMJG6V8UAFS" id="Iifu-EK7bCFycCvdcRt5-1">
          <mxCell style="whiteSpace=wrap;html=1;glass=0;fontSize=18;fontStyle=1;strokeColor=#314354;fillColor=#647687;fontColor=#ffffff;" vertex="1" parent="1">
            <mxGeometry x="920" y="679" width="227" height="35" as="geometry" />
          </mxCell>
        </UserObject>
        <UserObject label="Cancel" link="data:page/id,hgLcFoqbssjTXuBi4_AG" id="Iifu-EK7bCFycCvdcRt5-2">
          <mxCell style="whiteSpace=wrap;html=1;glass=0;fontSize=18;fontStyle=1;strokeColor=#314354;fillColor=#647687;fontColor=#ffffff;" vertex="1" parent="1">
            <mxGeometry x="1160" y="679" width="116" height="35" as="geometry" />
          </mxCell>
        </UserObject>
      </root>
    </mxGraphModel>
  </diagram>
  <diagram id="DdyOgkGcl3cxmvbCV8Uq" name="AddModulePage">
    <mxGraphModel dx="2074" dy="1106" grid="1" gridSize="10" guides="1" tooltips="1" connect="1" arrows="1" fold="1" page="1" pageScale="1" pageWidth="1600" pageHeight="900" math="0" shadow="0">
      <root>
        <mxCell id="0" />
        <mxCell id="1" parent="0" />
        <mxCell id="hhKOj2p4L4FopTOh9O84-6" value="" style="shape=mxgraph.mockup.containers.marginRect;rectMarginTop=10;strokeColor=#666666;strokeWidth=1;dashed=0;rounded=1;arcSize=5;recursiveResize=0;html=1;whiteSpace=wrap;fontColor=#FFFFFF;fillColor=#182E3E;" vertex="1" parent="1">
          <mxGeometry x="440" y="110" width="410" height="600" as="geometry" />
        </mxCell>
        <mxCell id="hhKOj2p4L4FopTOh9O84-7" value="Modules" style="shape=rect;strokeColor=none;fillColor=#008cff;strokeWidth=1;dashed=0;rounded=1;arcSize=20;fontColor=#ffffff;fontSize=17;spacing=2;spacingTop=-2;align=left;autosize=1;spacingLeft=4;resizeWidth=0;resizeHeight=0;perimeter=none;html=1;whiteSpace=wrap;" vertex="1" parent="hhKOj2p4L4FopTOh9O84-6">
          <mxGeometry x="5" width="90" height="30" as="geometry" />
        </mxCell>
        <UserObject label="Rotation" link="data:page/id,VNy_x9ZEN6lF7U0V-27q" id="hhKOj2p4L4FopTOh9O84-8">
          <mxCell style="whiteSpace=wrap;html=1;strokeColor=#FFFFFF;fontColor=#FFFFFF;fillColor=#182E3E;fontSize=16;fontStyle=1" vertex="1" parent="hhKOj2p4L4FopTOh9O84-6">
            <mxGeometry x="50" y="60" width="310" height="60" as="geometry" />
          </mxCell>
        </UserObject>
        <UserObject label="DrawerBoxCropper" link="data:page/id,VNy_x9ZEN6lF7U0V-27q" id="hhKOj2p4L4FopTOh9O84-9">
          <mxCell style="whiteSpace=wrap;html=1;strokeColor=#FFFFFF;fontColor=#FFFFFF;fillColor=#182E3E;fontSize=16;fontStyle=1" vertex="1" parent="hhKOj2p4L4FopTOh9O84-6">
            <mxGeometry x="50" y="150" width="310" height="60" as="geometry" />
          </mxCell>
        </UserObject>
        <UserObject label="&lt;div&gt;HistogrammEqualization&lt;/div&gt;" link="data:page/id,VNy_x9ZEN6lF7U0V-27q" id="hhKOj2p4L4FopTOh9O84-11">
          <mxCell style="whiteSpace=wrap;html=1;strokeColor=#FFFFFF;fontColor=#FFFFFF;fillColor=#182E3E;fontSize=16;fontStyle=1" vertex="1" parent="hhKOj2p4L4FopTOh9O84-6">
            <mxGeometry x="50" y="240" width="310" height="60" as="geometry" />
          </mxCell>
        </UserObject>
      </root>
    </mxGraphModel>
  </diagram>
</mxfile>
